<?xml version="1.0" encoding="UTF-8"?>
<svg xmlns="http://www.w3.org/2000/svg"  xmlns:xlink="http://www.w3.org/1999/xlink" width="100px" height="56px" viewBox="0 0 100 56" version="1.1">
<g id="surface1">
<path style=" stroke:none;fill-rule:nonzero;fill:rgb(17.254902%,17.254902%,16.862745%);fill-opacity:0;" d="M 0 0 C 33 0 66 0 100 0 C 100 18.480469 100 36.960938 100 56 C 67 56 34 56 0 56 C 0 37.519531 0 19.039062 0 0 Z M 0 0 "/>
<path style=" stroke:none;fill-rule:nonzero;fill:rgb(78.039216%,67.058824%,35.294118%);fill-opacity:1;" d="M 27.414062 7.917969 C 28.226562 8.273438 28.980469 8.707031 29.742188 9.160156 C 29.957031 9.285156 30.171875 9.410156 30.394531 9.535156 C 31.011719 9.894531 31.625 10.257812 32.238281 10.621094 C 32.386719 10.707031 32.535156 10.796875 32.6875 10.886719 C 33.511719 11.367188 34.324219 11.859375 35.136719 12.359375 C 35.542969 12.609375 35.949219 12.859375 36.355469 13.105469 C 36.644531 13.285156 36.929688 13.460938 37.21875 13.636719 C 38.054688 14.152344 38.898438 14.652344 39.746094 15.140625 C 39.941406 15.253906 40.132812 15.363281 40.328125 15.480469 C 40.703125 15.695312 41.078125 15.910156 41.457031 16.125 C 41.628906 16.222656 41.796875 16.320312 41.976562 16.425781 C 42.125 16.511719 42.277344 16.597656 42.433594 16.6875 C 43.050781 17.132812 43.554688 17.558594 43.699219 18.34375 C 43.730469 18.820312 43.730469 19.292969 43.726562 19.773438 C 43.726562 20.042969 43.726562 20.042969 43.730469 20.320312 C 43.730469 20.921875 43.730469 21.519531 43.726562 22.117188 C 43.726562 22.53125 43.726562 22.949219 43.726562 23.363281 C 43.726562 24.238281 43.722656 25.109375 43.71875 25.980469 C 43.714844 27.097656 43.714844 28.214844 43.71875 29.332031 C 43.71875 30.191406 43.714844 31.050781 43.714844 31.910156 C 43.714844 32.324219 43.714844 32.734375 43.714844 33.148438 C 43.714844 33.722656 43.710938 34.300781 43.707031 34.875 C 43.707031 35.132812 43.707031 35.132812 43.710938 35.390625 C 43.699219 36.304688 43.644531 36.914062 43.050781 37.65625 C 42.625 37.980469 42.625 37.980469 42.121094 38.273438 C 41.933594 38.386719 41.742188 38.496094 41.546875 38.613281 C 41.34375 38.730469 41.136719 38.847656 40.925781 38.96875 C 40.597656 39.164062 40.273438 39.355469 39.945312 39.546875 C 39.601562 39.75 39.257812 39.949219 38.914062 40.148438 C 38.023438 40.667969 37.140625 41.195312 36.257812 41.722656 C 34.324219 42.871094 32.382812 44.011719 30.441406 45.148438 C 30.15625 45.316406 30.15625 45.316406 29.863281 45.488281 C 29.371094 45.777344 28.875 46.0625 28.378906 46.34375 C 28.070312 46.523438 28.070312 46.523438 27.753906 46.710938 C 27.039062 46.996094 26.640625 47.039062 25.867188 46.925781 C 25.128906 46.585938 24.449219 46.167969 23.757812 45.742188 C 23.339844 45.492188 22.925781 45.242188 22.507812 44.992188 C 22.296875 44.863281 22.085938 44.734375 21.867188 44.601562 C 20.894531 44.015625 19.914062 43.449219 18.929688 42.882812 C 17.285156 41.921875 15.644531 40.949219 14.007812 39.972656 C 13.710938 39.796875 13.710938 39.796875 13.410156 39.613281 C 12.863281 39.285156 12.320312 38.957031 11.777344 38.621094 C 11.523438 38.464844 11.523438 38.464844 11.265625 38.304688 C 11.109375 38.207031 10.953125 38.109375 10.792969 38.003906 C 10.65625 37.917969 10.519531 37.832031 10.378906 37.742188 C 9.960938 37.394531 9.84375 37.203125 9.652344 36.691406 C 9.609375 36.109375 9.589844 35.546875 9.585938 34.96875 C 9.582031 34.796875 9.578125 34.621094 9.578125 34.441406 C 9.570312 33.867188 9.5625 33.292969 9.558594 32.71875 C 9.554688 32.320312 9.550781 31.921875 9.542969 31.523438 C 9.535156 30.683594 9.527344 29.847656 9.519531 29.011719 C 9.511719 27.9375 9.496094 26.867188 9.484375 25.792969 C 9.472656 24.96875 9.464844 24.144531 9.457031 23.320312 C 9.453125 22.925781 9.449219 22.53125 9.441406 22.136719 C 9.4375 21.582031 9.429688 21.03125 9.425781 20.476562 C 9.425781 20.3125 9.421875 20.152344 9.417969 19.980469 C 9.414062 18.980469 9.488281 18.214844 10.132812 17.402344 C 10.292969 17.242188 10.292969 17.242188 10.460938 17.078125 C 10.566406 16.96875 10.671875 16.863281 10.78125 16.75 C 11.210938 16.402344 11.660156 16.132812 12.144531 15.867188 C 12.609375 15.605469 13.070312 15.339844 13.53125 15.070312 C 13.710938 14.964844 13.890625 14.859375 14.078125 14.75 C 14.367188 14.582031 14.367188 14.582031 14.660156 14.410156 C 14.863281 14.292969 15.066406 14.175781 15.273438 14.050781 C 16.5 13.335938 17.730469 12.617188 18.957031 11.898438 C 19.53125 11.5625 20.105469 11.230469 20.683594 10.894531 C 21.445312 10.453125 22.199219 10.003906 22.953125 9.550781 C 23.3125 9.335938 23.675781 9.121094 24.035156 8.90625 C 24.199219 8.808594 24.359375 8.707031 24.527344 8.605469 C 25.46875 8.050781 26.308594 7.625 27.414062 7.917969 Z M 27.414062 7.917969 "/>
<path style=" stroke:none;fill-rule:nonzero;fill:rgb(5.490196%,5.490196%,5.098039%);fill-opacity:1;" d="M 22.394531 17.1875 C 22.394531 17.367188 22.390625 17.546875 22.390625 17.734375 C 22.386719 18.410156 22.386719 19.085938 22.382812 19.761719 C 22.382812 20.054688 22.382812 20.347656 22.378906 20.636719 C 22.375 21.058594 22.375 21.480469 22.375 21.902344 C 22.375 22.152344 22.371094 22.40625 22.371094 22.667969 C 22.390625 23.304688 22.464844 23.898438 22.585938 24.523438 C 22.855469 24.402344 22.855469 24.402344 23.128906 24.277344 C 23.371094 24.171875 23.613281 24.0625 23.855469 23.957031 C 23.972656 23.902344 24.089844 23.851562 24.210938 23.792969 C 26.027344 22.996094 27.332031 23.25 29.152344 23.945312 C 29.628906 24.175781 30.054688 24.425781 30.5 24.71875 C 30.710938 23.140625 30.757812 21.5625 30.804688 19.972656 C 30.8125 19.703125 30.820312 19.433594 30.828125 19.160156 C 30.847656 18.503906 30.867188 17.84375 30.886719 17.1875 C 33.148438 17.96875 34.636719 19.289062 35.710938 21.429688 C 36.003906 22.152344 36.113281 22.824219 36.136719 23.597656 C 36.144531 23.816406 36.144531 23.816406 36.152344 24.039062 C 36.15625 24.335938 36.15625 24.628906 36.152344 24.921875 C 36.148438 25.394531 36.148438 25.394531 36.292969 26.070312 C 36.851562 26.566406 36.851562 26.566406 37.453125 26.839844 C 37.132812 27.289062 36.816406 27.734375 36.488281 28.191406 C 36.804688 28.257812 37.125 28.320312 37.453125 28.386719 C 37.1875 28.957031 36.875 29.4375 36.488281 29.929688 C 36.804688 30.121094 37.125 30.3125 37.453125 30.511719 C 37.402344 30.871094 37.402344 30.871094 37.257812 31.28125 C 36.941406 31.5 36.941406 31.5 36.523438 31.667969 C 36.363281 31.734375 36.207031 31.796875 36.042969 31.863281 C 35.507812 32.058594 34.96875 32.226562 34.421875 32.394531 C 31.914062 33.210938 28.292969 35.183594 26.964844 37.523438 C 26.921875 37.628906 26.878906 37.738281 26.832031 37.847656 C 26.644531 37.847656 26.453125 37.847656 26.253906 37.847656 C 26.171875 37.609375 26.171875 37.609375 26.085938 37.367188 C 25.015625 35.273438 21.40625 33.261719 19.21875 32.550781 C 18.863281 32.449219 18.503906 32.347656 18.148438 32.25 C 17.785156 32.121094 17.429688 31.988281 17.074219 31.851562 C 16.921875 31.792969 16.769531 31.734375 16.613281 31.675781 C 16.1875 31.460938 15.929688 31.269531 15.636719 30.898438 C 15.636719 30.707031 15.636719 30.515625 15.636719 30.316406 C 16.210938 30.125 16.210938 30.125 16.796875 29.929688 C 16.710938 29.851562 16.628906 29.773438 16.542969 29.691406 C 16.433594 29.585938 16.328125 29.484375 16.214844 29.375 C 16.109375 29.273438 16 29.167969 15.890625 29.0625 C 15.636719 28.773438 15.636719 28.773438 15.636719 28.386719 C 16.113281 28.289062 16.113281 28.289062 16.601562 28.191406 C 16.125 27.523438 16.125 27.523438 15.636719 26.839844 C 15.824219 26.746094 16.015625 26.652344 16.207031 26.550781 C 16.867188 26.117188 16.867188 26.117188 16.921875 25.351562 C 16.925781 25.070312 16.921875 24.792969 16.917969 24.511719 C 16.957031 22.289062 17.511719 20.535156 19.113281 18.925781 C 21.238281 17.1875 21.238281 17.1875 22.394531 17.1875 Z M 22.394531 17.1875 "/>
<path style=" stroke:none;fill-rule:nonzero;fill:rgb(84.705882%,79.215686%,46.27451%);fill-opacity:1;" d="M 61.558594 17.320312 C 61.789062 17.316406 62.019531 17.3125 62.257812 17.308594 C 63.230469 17.410156 63.863281 17.710938 64.527344 18.429688 C 65.523438 20.460938 65.300781 22.914062 65.289062 25.125 C 65.289062 25.476562 65.289062 25.828125 65.285156 26.179688 C 65.285156 27.097656 65.28125 28.015625 65.277344 28.933594 C 65.273438 29.875 65.273438 30.8125 65.269531 31.753906 C 65.265625 33.59375 65.257812 35.429688 65.25 37.269531 C 64.488281 37.269531 63.722656 37.269531 62.933594 37.269531 C 62.933594 35.355469 62.933594 33.445312 62.933594 31.476562 C 62.105469 31.476562 61.277344 31.476562 60.425781 31.476562 C 60.425781 33.386719 60.425781 35.300781 60.425781 37.269531 C 59.660156 37.269531 58.894531 37.269531 58.109375 37.269531 C 58.097656 35.246094 58.09375 33.226562 58.089844 31.207031 C 58.085938 30.265625 58.082031 29.328125 58.078125 28.390625 C 58.074219 27.480469 58.074219 26.574219 58.070312 25.664062 C 58.070312 25.320312 58.070312 24.976562 58.066406 24.632812 C 58.035156 19.386719 58.035156 19.386719 58.953125 18.210938 C 59.824219 17.445312 60.394531 17.324219 61.558594 17.320312 Z M 61.558594 17.320312 "/>
<path style=" stroke:none;fill-rule:nonzero;fill:rgb(64.313725%,45.098039%,16.862745%);fill-opacity:1;" d="M 47.683594 17.574219 C 52.703125 17.574219 52.703125 17.574219 53.859375 18.152344 C 55.035156 19.589844 55.085938 21.054688 55.078125 22.835938 C 55.082031 23.023438 55.085938 23.210938 55.089844 23.402344 C 55.089844 24.988281 54.921875 26.933594 53.859375 28.191406 C 52.679688 29.09375 51.832031 28.773438 50.191406 28.773438 C 50.191406 31.511719 50.191406 34.253906 50.191406 37.074219 C 49.363281 37.074219 48.535156 37.074219 47.683594 37.074219 C 47.683594 30.640625 47.683594 24.203125 47.683594 17.574219 Z M 47.683594 17.574219 "/>
<path style=" stroke:none;fill-rule:nonzero;fill:rgb(67.058824%,50.196078%,21.568627%);fill-opacity:1;" d="M 78.570312 17.378906 C 79.398438 17.378906 80.226562 17.378906 81.082031 17.378906 C 81.144531 19.609375 81.207031 21.839844 81.273438 24.136719 C 81.683594 22.773438 81.683594 22.773438 82.09375 21.40625 C 82.484375 20.109375 82.925781 18.839844 83.398438 17.574219 C 84.164062 17.574219 84.925781 17.574219 85.714844 17.574219 C 85.378906 19.199219 85.015625 20.804688 84.554688 22.398438 C 84.429688 22.398438 84.300781 22.398438 84.167969 22.398438 C 84.136719 22.601562 84.136719 22.601562 84.105469 22.808594 C 83.960938 23.6875 83.816406 24.511719 83.46875 25.332031 C 83.039062 26.410156 83.085938 27.34375 83.464844 28.417969 C 84.441406 31.265625 85.179688 34.113281 85.714844 37.074219 C 84.949219 37.074219 84.183594 37.074219 83.398438 37.074219 C 83.007812 35.9375 82.636719 34.816406 82.351562 33.648438 C 82.15625 32.890625 81.945312 32.132812 81.734375 31.378906 C 81.6875 31.21875 81.644531 31.0625 81.597656 30.898438 C 81.492188 30.511719 81.382812 30.125 81.273438 29.738281 C 81.269531 29.960938 81.265625 30.179688 81.257812 30.410156 C 81.242188 31.226562 81.222656 32.042969 81.203125 32.863281 C 81.195312 33.21875 81.1875 33.570312 81.179688 33.925781 C 81.167969 34.433594 81.15625 34.941406 81.140625 35.453125 C 81.136719 35.691406 81.136719 35.691406 81.132812 35.933594 C 81.101562 37.054688 81.101562 37.054688 80.886719 37.269531 C 80.125 37.269531 79.359375 37.269531 78.570312 37.269531 C 78.570312 30.707031 78.570312 24.140625 78.570312 17.378906 Z M 78.570312 17.378906 "/>
<path style=" stroke:none;fill-rule:nonzero;fill:rgb(84.705882%,80%,46.666667%);fill-opacity:1;" d="M 72.105469 17.308594 C 72.316406 17.304688 72.53125 17.304688 72.75 17.300781 C 73.640625 17.414062 74.136719 17.761719 74.746094 18.40625 C 75.402344 19.375 75.53125 20.253906 75.507812 21.410156 C 75.503906 21.632812 75.5 21.855469 75.496094 22.085938 C 75.492188 22.253906 75.488281 22.421875 75.484375 22.59375 C 74.78125 22.59375 74.082031 22.59375 73.359375 22.59375 C 73.335938 22.402344 73.3125 22.210938 73.289062 22.015625 C 73.253906 21.769531 73.222656 21.519531 73.191406 21.265625 C 73.160156 21.019531 73.128906 20.773438 73.09375 20.519531 C 73.03125 19.875 73.03125 19.875 72.585938 19.503906 C 72.089844 19.472656 72.089844 19.472656 71.621094 19.503906 C 71.304688 20.335938 71.1875 21.019531 71.1875 21.90625 C 71.1875 22.148438 71.1875 22.394531 71.1875 22.644531 C 71.1875 22.90625 71.191406 23.167969 71.191406 23.429688 C 71.191406 23.703125 71.191406 23.976562 71.191406 24.246094 C 71.191406 24.816406 71.191406 25.386719 71.195312 25.957031 C 71.199219 26.683594 71.199219 27.410156 71.199219 28.136719 C 71.199219 28.699219 71.199219 29.257812 71.203125 29.820312 C 71.203125 30.089844 71.203125 30.355469 71.203125 30.625 C 71.203125 31 71.207031 31.375 71.207031 31.75 C 71.207031 31.964844 71.207031 32.175781 71.210938 32.398438 C 71.210938 33.695312 71.210938 33.695312 71.816406 34.757812 C 72.316406 34.695312 72.316406 34.695312 72.78125 34.566406 C 73.21875 33.480469 73.273438 32.4375 73.359375 31.28125 C 74.058594 31.28125 74.761719 31.28125 75.484375 31.28125 C 75.628906 35.019531 75.628906 35.019531 74.457031 36.59375 C 73.5625 37.425781 72.648438 37.554688 71.464844 37.523438 C 70.785156 37.425781 70.390625 37.136719 69.882812 36.691406 C 68.261719 34.335938 68.640625 30.941406 68.660156 28.230469 C 68.664062 27.519531 68.664062 26.808594 68.664062 26.09375 C 68.671875 19.484375 68.671875 19.484375 69.882812 17.957031 C 70.632812 17.402344 71.179688 17.300781 72.105469 17.308594 Z M 72.105469 17.308594 "/>
<path style=" stroke:none;fill-rule:nonzero;fill:rgb(20.392157%,20%,19.215686%);fill-opacity:1;" d="M 61.667969 19.238281 C 62.164062 19.308594 62.164062 19.308594 62.476562 19.625 C 62.816406 20.210938 62.824219 20.621094 62.839844 21.296875 C 62.847656 21.535156 62.855469 21.777344 62.859375 22.023438 C 62.867188 22.28125 62.871094 22.539062 62.875 22.796875 C 62.878906 23.058594 62.886719 23.320312 62.894531 23.582031 C 62.941406 25.570312 62.957031 27.558594 62.933594 29.542969 C 62.105469 29.542969 61.277344 29.542969 60.425781 29.542969 C 60.414062 28.328125 60.40625 27.113281 60.402344 25.894531 C 60.402344 25.480469 60.398438 25.070312 60.394531 24.65625 C 60.390625 24.058594 60.390625 23.464844 60.386719 22.871094 C 60.386719 22.683594 60.382812 22.5 60.382812 22.3125 C 60.378906 21.367188 60.414062 20.574219 60.8125 19.695312 C 61.195312 19.308594 61.195312 19.308594 61.667969 19.238281 Z M 61.667969 19.238281 "/>
<path style=" stroke:none;fill-rule:nonzero;fill:rgb(18.431373%,18.039216%,17.647059%);fill-opacity:1;" d="M 50.191406 19.503906 C 50.832031 19.503906 51.46875 19.503906 52.125 19.503906 C 52.933594 20.71875 52.726562 22.390625 52.738281 23.8125 C 52.742188 24.035156 52.742188 24.035156 52.746094 24.265625 C 52.746094 25.082031 52.710938 25.71875 52.316406 26.457031 C 52.1875 26.582031 52.0625 26.710938 51.929688 26.839844 C 51.355469 26.839844 50.785156 26.839844 50.191406 26.839844 C 50.191406 24.417969 50.191406 22 50.191406 19.503906 Z M 50.191406 19.503906 "/>
</g>
</svg>
